<svg width="143" height="116" viewBox="0 0 143 116" fill="none" xmlns="http://www.w3.org/2000/svg">
<path d="M77.4583 101.5V91.8333H89.375V101.5H77.4583ZM65.5417 91.8333V67.6667H77.4583V91.8333H65.5417ZM113.208 77.3333V58H125.125V77.3333H113.208ZM101.292 58V48.3333H113.208V58H101.292ZM29.7917 67.6667V58H41.7083V67.6667H29.7917ZM17.875 58V48.3333H29.7917V58H17.875ZM71.5 24.1667V14.5H83.4167V24.1667H71.5ZM26.8125 36.25H44.6875V21.75H26.8125V36.25ZM17.875 38.6667V19.3333C17.875 17.9639 18.447 16.8168 19.591 15.892C20.735 14.9672 22.1491 14.5032 23.8333 14.5H47.6667C49.3549 14.5 50.771 14.964 51.915 15.892C53.059 16.82 53.629 17.9671 53.625 19.3333V38.6667C53.625 40.0361 53.053 41.1848 51.909 42.1128C50.765 43.0408 49.3509 43.5032 47.6667 43.5H23.8333C22.1451 43.5 20.731 43.036 19.591 42.108C18.451 41.18 17.879 40.0329 17.875 38.6667ZM26.8125 94.25H44.6875V79.75H26.8125V94.25ZM17.875 96.6667V77.3333C17.875 75.9639 18.447 74.8168 19.591 73.892C20.735 72.9672 22.1491 72.5032 23.8333 72.5H47.6667C49.3549 72.5 50.771 72.964 51.915 73.892C53.059 74.82 53.629 75.9671 53.625 77.3333V96.6667C53.625 98.0361 53.053 99.1848 51.909 100.113C50.765 101.041 49.3509 101.503 47.6667 101.5H23.8333C22.1451 101.5 20.731 101.036 19.591 100.108C18.451 99.18 17.879 98.0329 17.875 96.6667ZM98.3125 36.25H116.188V21.75H98.3125V36.25ZM89.375 38.6667V19.3333C89.375 17.9639 89.947 16.8168 91.091 15.892C92.235 14.9672 93.6491 14.5032 95.3333 14.5H119.167C120.855 14.5 122.271 14.964 123.415 15.892C124.559 16.82 125.129 17.9671 125.125 19.3333V38.6667C125.125 40.0361 124.553 41.1848 123.409 42.1128C122.265 43.0408 120.851 43.5032 119.167 43.5H95.3333C93.6451 43.5 92.231 43.036 91.091 42.108C89.951 41.18 89.379 40.0329 89.375 38.6667ZM101.292 101.5V87H89.375V77.3333H113.208V91.8333H125.125V101.5H101.292ZM77.4583 67.6667V58H101.292V67.6667H77.4583ZM53.625 67.6667V58H41.7083V48.3333H77.4583V58H65.5417V67.6667H53.625ZM59.5833 43.5V24.1667H71.5V33.8333H83.4167V43.5H59.5833ZM31.2812 32.625V25.375H40.2188V32.625H31.2812ZM31.2812 90.625V83.375H40.2188V90.625H31.2812ZM102.781 32.625V25.375H111.719V32.625H102.781Z" fill="black"/>
</svg>
